<svg width="669" height="675" viewBox="0 0 669 675" fill="none" xmlns="http://www.w3.org/2000/svg">
<path d="M518.38 73.6052C546.092 73.6053 568.557 96.0701 568.557 123.782V492.133C568.557 519.844 546.092 542.309 518.38 542.309H292.493L172.565 600.544C167.011 603.241 160.549 599.196 160.549 593.021V542.309H150.03C122.318 542.309 99.8521 519.845 99.8521 492.133V123.782C99.8521 96.07 122.318 73.6053 150.03 73.6052H518.38ZM191.626 166.622V457.398H281.961V356.595H317.946L389.743 457.398H493.258L414.512 350.267C419.366 348.766 424.033 347.001 428.512 344.965C445.571 336.952 458.883 325.838 468.446 311.622C478.009 297.148 482.79 280.606 482.791 261.997C482.791 242.87 478.009 226.199 468.446 211.983C458.883 197.767 445.571 186.653 428.512 178.64C411.453 170.628 391.68 166.622 369.194 166.622H191.626ZM355.625 231.756C366.997 231.756 375.786 234.34 381.989 239.51C388.45 244.679 391.681 252.175 391.681 261.997C391.681 271.818 388.45 279.314 381.989 284.483C375.786 289.653 366.997 292.237 355.625 292.237H281.961V231.756H355.625Z" fill="#AB35EE"/>
</svg>
